<svg id="Layer_1" enable-background="new 0 0 512 512" height="512" viewBox="0 0 512 512" width="512" xmlns="http://www.w3.org/2000/svg"><g><g><g><g><g><g id="XMLID_2434_"><g id="XMLID_2435_"><g id="XMLID_2436_"><g id="XMLID_2437_"><g id="XMLID_2438_"><g id="XMLID_2439_"><g id="XMLID_2440_"><g id="XMLID_2441_"><g id="XMLID_2442_"><g id="XMLID_2443_"><g id="XMLID_2444_"><g id="XMLID_2445_"><g id="XMLID_2446_"><g id="XMLID_2447_"><g id="XMLID_2448_"><circle cx="256" cy="256" fill="#ffcb48" r="256"/></g></g></g></g></g></g></g></g></g></g></g></g></g></g></g></g></g></g></g><path d="m512 256c0-23.058-3.067-45.397-8.783-66.65l-72.23-72.23-344.782 176.478 44.455 44.478-31.704-6.095 53.888 52.595-54.511 19.522 101.761 101.762c17.997 4.009 36.701 6.14 55.906 6.14 141.385 0 256-114.615 256-256z" fill="#ffa015"/><g><g><g><g><g><g><path d="m393.542 305.646h-275.084c-27.221 0-49.493-22.272-49.493-49.493v-106.78c0-27.221 22.272-49.493 49.493-49.493h275.084c27.221 0 49.493 22.272 49.493 49.493v106.78c0 27.221-22.272 49.493-49.493 49.493z" fill="#6c2ac4"/></g></g></g><g><path d="m443.035 149.376v106.78c0 27.22-22.27 49.49-49.49 49.49h-137.54v-205.77h137.54c27.22 0 49.49 22.28 49.49 49.5z" fill="#3c1784"/></g></g><g><g><path d="m191.655 197.827c3.322-4.299 5.305-9.682 5.305-15.523 0-14.028-11.413-25.441-25.441-25.441h-30.149v35.904 15.091 42.011l7.533-.033c.002 0 20.831-.093 26.572-.093 15.708 0 28.488-12.779 28.488-28.488-.001-9.702-4.879-18.282-12.308-23.428zm-35.285-25.964h15.149c5.757 0 10.441 4.684 10.441 10.441 0 5.758-4.684 10.441-10.441 10.441-1.679 0-4.856.009-8.309.021h-6.84zm19.105 62.88c-3.486 0-12.521.034-19.105.061v-27.01c2.163-.009 4.553-.018 6.826-.026h12.279c7.437 0 13.488 6.051 13.488 13.487-.001 7.437-6.051 13.488-13.488 13.488z" fill="#fff"/><g><path d="m377.106 163.21-12.57-8.184-22.518 34.591-22.717-34.791-12.56 8.2 27.781 42.547-.111 45.087 15 .037.111-45.114z" fill="#c0fffa"/></g><path d="m275.261 218.803c0 4.038-1.096 9.958-10.567 14.73-2.828 1.424-6.012 2.145-9.465 2.145-.011 0-.022 0-.033 0-3.881-.005-7.265-.964-10.344-2.931-6.229-3.98-8.77-8.004-8.77-13.889v-61.153h-15v61.153c0 11.104 5.133 19.781 15.695 26.529 5.481 3.501 11.672 5.281 18.399 5.29h.054c5.816 0 11.271-1.261 16.211-3.749 15.555-7.835 18.82-19.62 18.82-28.126v-61.098h-15z" fill="#fff"/></g></g><path d="m290.26 157.703v61.1c0 8.51-3.26 20.29-18.82 28.13-4.72 2.37-9.91 3.64-15.44 3.74v-15.01c3.16-.09 6.08-.82 8.69-2.13 9.48-4.77 10.57-10.69 10.57-14.73v-61.1z" fill="#c0fffa"/></g><g><path d="m221.557 282.295-122.602 49.686 34.49 26.613-35.112 45.505 36.652 28.282 35.112-45.505 34.49 26.613z" fill="#fff"/><path d="m204.586 413.483-34.485-26.609-35.112 45.505-18.323-14.138 104.893-135.939z" fill="#c0fffa"/></g></g></g></svg>